<svg width="127" height="14" viewBox="0 0 127 14" fill="none" xmlns="http://www.w3.org/2000/svg">
<path d="M83.1567 7.27271C83.1567 10.5308 80.6797 13.4718 76.5305 13.4902H72.9336V1.05518H76.5305C80.5892 1.05518 83.1567 3.89756 83.1567 7.27271ZM75.3825 3.46335V11.0882H76.5305C78.8703 11.0882 80.6017 9.46224 80.6017 7.27579C80.6017 5.08934 78.8734 3.46335 76.5305 3.46335H75.3825Z" fill="#1E1E1E"/>
<path d="M19.6957 11.2761H26.1877V13.4933H15.375L22.0542 3.27242H16.2547V1.05518H26.4061L19.7019 11.273L19.6957 11.2761Z" fill="#1E1E1E"/>
<path d="M63.945 11.2761V1.05518H61.4961V13.4933H70.8956V11.2761H63.945Z" fill="#1E1E1E"/>
<path d="M8.50115 0.799316C12.5598 0.799316 15.1242 3.75873 15.1242 7.27245C15.1242 10.7862 12.6316 13.7487 8.46059 13.7487C4.28963 13.7487 1.89062 10.6969 1.89062 7.27245C1.89062 3.84803 4.51113 0.799316 8.50115 0.799316ZM8.50115 11.3867C10.8409 11.3867 12.5723 9.63135 12.5723 7.27245C12.5723 4.91354 10.844 3.1613 8.50115 3.1613C6.1583 3.1613 4.44561 4.90122 4.44561 7.27245C4.44561 9.64367 6.1739 11.3867 8.50115 11.3867Z" fill="#1E1E1E"/>
<path d="M52.9629 0.799316C57.0246 0.799316 59.589 3.75873 59.589 7.27245C59.589 10.7862 57.0964 13.7487 52.9254 13.7487C48.7545 13.7487 46.3555 10.6969 46.3555 7.27245C46.3555 3.84803 48.9728 0.799316 52.9629 0.799316ZM52.966 11.3867C55.3057 11.3867 57.0371 9.63135 57.0371 7.27245C57.0371 4.91354 55.3088 3.1613 52.966 3.1613C50.6231 3.1613 48.9105 4.90122 48.9105 7.27245C48.9105 9.64367 50.6387 11.3867 52.966 11.3867Z" fill="#1E1E1E"/>
<path d="M41.9962 1.05518V5.90233H36.7458V1.05518H34.2969V13.4933H36.7458V8.11957H41.9962V13.4933H44.4482V1.05518H41.9962Z" fill="#1E1E1E"/>
<path d="M87.5095 1.05518H85.0605V13.4933H87.5095V1.05518Z" fill="#1E1E1E"/>
<path d="M123.19 4.6949C123.097 4.47009 123.006 4.22989 122.635 3.88499C122.307 3.58011 121.627 3.19826 120.657 3.18594C119.415 3.17054 118.642 3.83263 118.642 4.50705C118.642 5.31696 119.425 5.81276 121.462 6.26545C122.476 6.49333 123.243 6.76125 123.611 6.92446C125.483 7.74669 126.179 9.39731 125.648 11.0418C125.165 12.5292 123.465 13.9581 120.747 13.7887C119.269 13.6963 118.127 13.296 117.163 12.3906C116.726 11.981 116.392 11.5068 116.187 11.0233L118.545 9.92699C119.041 10.8755 119.936 11.399 121.081 11.4206C122.323 11.4421 123.14 10.9001 123.19 10.2257C123.253 9.41887 122.856 8.9785 120.76 8.42727C120.014 8.23018 118.944 7.89143 118.564 7.75901C116.539 7.05072 115.818 5.48325 116.227 3.81108C116.595 2.29596 118.086 0.799316 120.81 0.799316C122.292 0.799316 123.642 1.29512 124.613 2.19741C125.087 2.63778 125.443 3.15206 125.648 3.67558L123.19 4.6949Z" fill="#1E1E1E"/>
<path d="M97.2462 1.05518V9.12041L92.0831 1.05518H89.5469V13.4933H91.9958V5.41576L97.19 13.4933H99.6982V1.05518H97.2462Z" fill="#1E1E1E"/>
<path d="M109.328 6.70274V8.91999H111.958C111.349 10.3797 109.952 11.3867 108.217 11.3867C105.89 11.3867 104.162 9.63135 104.162 7.27245C104.162 4.91354 105.89 3.1613 108.217 3.1613C109.527 3.1613 110.647 3.70637 111.377 4.60251L113.583 3.34607C112.441 1.8094 110.582 0.799316 108.214 0.799316C104.224 0.799316 101.604 3.7772 101.604 7.27245C101.604 10.7677 104.149 13.7487 108.173 13.7487C109.665 13.7487 110.931 13.1266 111.954 12.3167V13.4931H114.403L114.394 6.70274H109.325H109.328Z" fill="#1E1E1E"/>
</svg>
