<svg width="375" height="579" viewBox="0 0 375 579" fill="none" xmlns="http://www.w3.org/2000/svg">
<mask id="mask0_3159_9557" style="mask-type:alpha" maskUnits="userSpaceOnUse" x="-158" y="-40" width="993" height="619">
<rect x="-157.793" y="-40" width="992.585" height="619" fill="#D9D9D9"/>
</mask>
<g mask="url(#mask0_3159_9557)">
<path d="M177.596 1.99414H169.688V9.90273H177.596V1.99414Z" fill="#F2F2F2"/>
<path d="M189.866 1.99414H181.957V9.90273H189.866V1.99414Z" fill="#F2F2F2"/>
<path d="M177.596 14.8965H169.688V22.8051H177.596V14.8965Z" fill="#F2F2F2"/>
<path d="M189.866 14.8965H181.957V22.8051H189.866V14.8965Z" fill="#F2F2F2"/>
<path d="M67.1117 40.7017H59.2031V48.6103H67.1117V40.7017Z" fill="#F2F2F2"/>
<path d="M140.768 40.7017H132.859V48.6103H140.768V40.7017Z" fill="#F2F2F2"/>
<path d="M153.041 40.7017H145.133V48.6103H153.041V40.7017Z" fill="#F2F2F2"/>
<path d="M165.319 40.7017H157.41V48.6103H165.319V40.7017Z" fill="#F2F2F2"/>
<path d="M177.596 40.7017H169.688V48.6103H177.596V40.7017Z" fill="#F2F2F2"/>
<path d="M189.866 40.7017H181.957V48.6103H189.866V40.7017Z" fill="#F2F2F2"/>
<path d="M202.143 40.7017H194.234V48.6103H202.143V40.7017Z" fill="#F2F2F2"/>
<path d="M214.42 40.7017H206.512V48.6103H214.42V40.7017Z" fill="#F2F2F2"/>
<path d="M54.8383 53.604H46.9297V61.5126H54.8383V53.604Z" fill="#F2F2F2"/>
<path d="M140.768 53.604H132.859V61.5126H140.768V53.604Z" fill="#F2F2F2"/>
<path d="M153.041 53.604H145.133V61.5126H153.041V53.604Z" fill="#F2F2F2"/>
<path d="M165.319 53.604H157.41V61.5126H165.319V53.604Z" fill="#F2F2F2"/>
<path d="M177.596 53.604H169.688V61.5126H177.596V53.604Z" fill="#F2F2F2"/>
<path d="M189.866 53.604H181.957V61.5126H189.866V53.604Z" fill="#F2F2F2"/>
<path d="M202.143 53.604H194.234V61.5126H202.143V53.604Z" fill="#F2F2F2"/>
<path d="M214.42 53.604H206.512V61.5126H214.42V53.604Z" fill="#F2F2F2"/>
<path d="M226.698 53.604H218.789V61.5126H226.698V53.604Z" fill="#F2F2F2"/>
<path d="M288.077 53.604H280.168V61.5126H288.077V53.604Z" fill="#F2F2F2"/>
<path d="M67.1117 27.7998H59.2031V35.7084H67.1117V27.7998Z" fill="#F2F2F2"/>
<path d="M79.3851 27.7998H71.4766V35.7084H79.3851V27.7998Z" fill="#F2F2F2"/>
<path d="M165.319 27.7998H157.41V35.7084H165.319V27.7998Z" fill="#F2F2F2"/>
<path d="M177.596 27.7998H169.688V35.7084H177.596V27.7998Z" fill="#F2F2F2"/>
<path d="M189.866 27.7998H181.957V35.7084H189.866V27.7998Z" fill="#F2F2F2"/>
<path d="M202.143 27.7998H194.234V35.7084H202.143V27.7998Z" fill="#F2F2F2"/>
<path d="M42.557 66.5059H34.6484V74.4144H42.557V66.5059Z" fill="#F2F2F2"/>
<path d="M54.8383 66.5059H46.9297V74.4144H54.8383V66.5059Z" fill="#F2F2F2"/>
<path d="M91.6625 66.5059H83.7539V74.4144H91.6625V66.5059Z" fill="#F2F2F2"/>
<path d="M103.936 66.5059H96.0273V74.4144H103.936V66.5059Z" fill="#F2F2F2"/>
<path d="M116.213 66.5059H108.305V74.4144H116.213V66.5059Z" fill="#F2F2F2"/>
<path d="M128.491 66.5059H120.582V74.4144H128.491V66.5059Z" fill="#F2F2F2"/>
<path d="M140.768 66.5059H132.859V74.4144H140.768V66.5059Z" fill="#F2F2F2"/>
<path d="M153.041 66.5059H145.133V74.4144H153.041V66.5059Z" fill="#F2F2F2"/>
<path d="M165.319 66.5059H157.41V74.4144H165.319V66.5059Z" fill="#F2F2F2"/>
<path d="M177.596 66.5059H169.688V74.4144H177.596V66.5059Z" fill="#F2F2F2"/>
<path d="M189.866 66.5059H181.957V74.4144H189.866V66.5059Z" fill="#F2F2F2"/>
<path d="M202.143 66.5059H194.234V74.4144H202.143V66.5059Z" fill="#F2F2F2"/>
<path d="M214.42 66.5059H206.512V74.4144H214.42V66.5059Z" fill="#F2F2F2"/>
<path d="M226.698 66.5059H218.789V74.4144H226.698V66.5059Z" fill="#F2F2F2"/>
<path d="M238.975 66.5059H231.066V74.4144H238.975V66.5059Z" fill="#F2F2F2"/>
<path d="M288.077 66.5059H280.168V74.4144H288.077V66.5059Z" fill="#F2F2F2"/>
<path d="M300.354 66.5059H292.445V74.4144H300.354V66.5059Z" fill="#F2F2F2"/>
<path d="M312.623 66.5059H304.715V74.4144H312.623V66.5059Z" fill="#F2F2F2"/>
<path d="M42.557 79.4092H34.6484V87.3178H42.557V79.4092Z" fill="#F2F2F2"/>
<path d="M54.8383 79.4092H46.9297V87.3178H54.8383V79.4092Z" fill="#F2F2F2"/>
<path d="M91.6625 79.4092H83.7539V87.3178H91.6625V79.4092Z" fill="#F2F2F2"/>
<path d="M103.936 79.4092H96.0273V87.3178H103.936V79.4092Z" fill="#F2F2F2"/>
<path d="M116.213 79.4092H108.305V87.3178H116.213V79.4092Z" fill="#F2F2F2"/>
<path d="M128.491 79.4092H120.582V87.3178H128.491V79.4092Z" fill="#F2F2F2"/>
<path d="M140.768 79.4092H132.859V87.3178H140.768V79.4092Z" fill="#F2F2F2"/>
<path d="M153.041 79.4092H145.133V87.3178H153.041V79.4092Z" fill="#F2F2F2"/>
<path d="M165.319 79.4092H157.41V87.3178H165.319V79.4092Z" fill="#F2F2F2"/>
<path d="M177.596 79.4092H169.688V87.3178H177.596V79.4092Z" fill="#F2F2F2"/>
<path d="M189.866 79.4092H181.957V87.3178H189.866V79.4092Z" fill="#F2F2F2"/>
<path d="M202.143 79.4092H194.234V87.3178H202.143V79.4092Z" fill="#F2F2F2"/>
<path d="M214.42 79.4092H206.512V87.3178H214.42V79.4092Z" fill="#F2F2F2"/>
<path d="M226.698 79.4092H218.789V87.3178H226.698V79.4092Z" fill="#F2F2F2"/>
<path d="M238.975 79.4092H231.066V87.3178H238.975V79.4092Z" fill="#F2F2F2"/>
<path d="M251.248 79.4092H243.34V87.3178H251.248V79.4092Z" fill="#F2F2F2"/>
<path d="M263.522 79.4092H255.613V87.3178H263.522V79.4092Z" fill="#F2F2F2"/>
<path d="M275.799 79.4092H267.891V87.3178H275.799V79.4092Z" fill="#F2F2F2"/>
<path d="M288.077 79.4092H280.168V87.3178H288.077V79.4092Z" fill="#F2F2F2"/>
<path d="M300.354 79.4092H292.445V87.3178H300.354V79.4092Z" fill="#F2F2F2"/>
<path d="M312.623 79.4092H304.715V87.3178H312.623V79.4092Z" fill="#F2F2F2"/>
<path d="M324.905 79.4092H316.996V87.3178H324.905V79.4092Z" fill="#F2F2F2"/>
<path d="M54.8383 92.311H46.9297V100.22H54.8383V92.311Z" fill="#F2F2F2"/>
<path d="M67.1117 92.311H59.2031V100.22H67.1117V92.311Z" fill="#F2F2F2"/>
<path d="M79.3851 92.311H71.4766V100.22H79.3851V92.311Z" fill="#F2F2F2"/>
<path d="M91.6625 92.311H83.7539V100.22H91.6625V92.311Z" fill="#F2F2F2"/>
<path d="M103.936 92.311H96.0273V100.22H103.936V92.311Z" fill="#F2F2F2"/>
<path d="M116.213 92.311H108.305V100.22H116.213V92.311Z" fill="#F2F2F2"/>
<path d="M128.491 92.311H120.582V100.22H128.491V92.311Z" fill="#F2F2F2"/>
<path d="M140.768 92.311H132.859V100.22H140.768V92.311Z" fill="#F2F2F2"/>
<path d="M153.041 92.311H145.133V100.22H153.041V92.311Z" fill="#F2F2F2"/>
<path d="M165.319 92.311H157.41V100.22H165.319V92.311Z" fill="#F2F2F2"/>
<path d="M177.596 92.311H169.688V100.22H177.596V92.311Z" fill="#F2F2F2"/>
<path d="M189.866 92.311H181.957V100.22H189.866V92.311Z" fill="#F2F2F2"/>
<path d="M202.143 92.311H194.234V100.22H202.143V92.311Z" fill="#F2F2F2"/>
<path d="M214.42 92.311H206.512V100.22H214.42V92.311Z" fill="#F2F2F2"/>
<path d="M226.698 92.311H218.789V100.22H226.698V92.311Z" fill="#F2F2F2"/>
<path d="M238.975 92.311H231.066V100.22H238.975V92.311Z" fill="#F2F2F2"/>
<path d="M251.248 92.311H243.34V100.22H251.248V92.311Z" fill="#F2F2F2"/>
<path d="M263.522 92.311H255.613V100.22H263.522V92.311Z" fill="#F2F2F2"/>
<path d="M275.799 92.311H267.891V100.22H275.799V92.311Z" fill="#F2F2F2"/>
<path d="M288.077 92.311H280.168V100.22H288.077V92.311Z" fill="#F2F2F2"/>
<path d="M300.354 92.311H292.445V100.22H300.354V92.311Z" fill="#F2F2F2"/>
<path d="M312.623 92.311H304.715V100.22H312.623V92.311Z" fill="#F2F2F2"/>
<path d="M324.905 92.311H316.996V100.22H324.905V92.311Z" fill="#F2F2F2"/>
<path d="M337.178 92.311H329.27V100.22H337.178V92.311Z" fill="#F2F2F2"/>
<path d="M374.002 92.311H366.094V100.22H374.002V92.311Z" fill="#F2F2F2"/>
<path d="M5.73281 118.116H-2.17578V126.024H5.73281V118.116Z" fill="#F2F2F2"/>
<path d="M18.0102 118.116H10.1016V126.024H18.0102V118.116Z" fill="#F2F2F2"/>
<path d="M30.2875 118.116H22.3789V126.024H30.2875V118.116Z" fill="#F2F2F2"/>
<path d="M42.557 118.116H34.6484V126.024H42.557V118.116Z" fill="#F2F2F2"/>
<path d="M54.8383 118.116H46.9297V126.024H54.8383V118.116Z" fill="#F2F2F2"/>
<path d="M67.1117 118.116H59.2031V126.024H67.1117V118.116Z" fill="#F2F2F2"/>
<path d="M79.3851 118.116H71.4766V126.024H79.3851V118.116Z" fill="#F2F2F2"/>
<path d="M91.6625 118.116H83.7539V126.024H91.6625V118.116Z" fill="#F2F2F2"/>
<path d="M103.936 118.116H96.0273V126.024H103.936V118.116Z" fill="#F2F2F2"/>
<path d="M116.213 118.116H108.305V126.024H116.213V118.116Z" fill="#F2F2F2"/>
<path d="M128.491 118.116H120.582V126.024H128.491V118.116Z" fill="#F2F2F2"/>
<path d="M140.768 118.116H132.859V126.024H140.768V118.116Z" fill="#F2F2F2"/>
<path d="M153.041 118.116H145.133V126.024H153.041V118.116Z" fill="#F2F2F2"/>
<path d="M165.319 118.116H157.41V126.024H165.319V118.116Z" fill="#F2F2F2"/>
<path d="M177.596 118.116H169.688V126.024H177.596V118.116Z" fill="#F2F2F2"/>
<path d="M189.866 118.116H181.957V126.024H189.866V118.116Z" fill="#F2F2F2"/>
<path d="M202.143 118.116H194.234V126.024H202.143V118.116Z" fill="#F2F2F2"/>
<path d="M214.42 118.116H206.512V126.024H214.42V118.116Z" fill="#F2F2F2"/>
<path d="M226.698 118.116H218.789V126.024H226.698V118.116Z" fill="#F2F2F2"/>
<path d="M238.975 118.116H231.066V126.024H238.975V118.116Z" fill="#F2F2F2"/>
<path d="M251.248 118.116H243.34V126.024H251.248V118.116Z" fill="#F2F2F2"/>
<path d="M263.522 118.116H255.613V126.024H263.522V118.116Z" fill="#F2F2F2"/>
<path d="M275.799 118.116H267.891V126.024H275.799V118.116Z" fill="#F2F2F2"/>
<path d="M288.077 118.116H280.168V126.024H288.077V118.116Z" fill="#F2F2F2"/>
<path d="M300.354 118.116H292.445V126.024H300.354V118.116Z" fill="#F2F2F2"/>
<path d="M312.623 118.116H304.715V126.024H312.623V118.116Z" fill="#F2F2F2"/>
<path d="M324.905 118.116H316.996V126.024H324.905V118.116Z" fill="#F2F2F2"/>
<path d="M337.178 118.116H329.27V126.024H337.178V118.116Z" fill="#F2F2F2"/>
<path d="M349.452 118.116H341.543V126.024H349.452V118.116Z" fill="#F2F2F2"/>
<path d="M361.729 118.116H353.82V126.024H361.729V118.116Z" fill="#F2F2F2"/>
<path d="M374.002 118.116H366.094V126.024H374.002V118.116Z" fill="#F2F2F2"/>
<path d="M42.557 105.213H34.6484V113.121H42.557V105.213Z" fill="#F2F2F2"/>
<path d="M54.8383 105.213H46.9297V113.121H54.8383V105.213Z" fill="#F2F2F2"/>
<path d="M67.1117 105.213H59.2031V113.121H67.1117V105.213Z" fill="#F2F2F2"/>
<path d="M79.3851 105.213H71.4766V113.121H79.3851V105.213Z" fill="#F2F2F2"/>
<path d="M91.6625 105.213H83.7539V113.121H91.6625V105.213Z" fill="#F2F2F2"/>
<path d="M103.936 105.213H96.0273V113.121H103.936V105.213Z" fill="#F2F2F2"/>
<path d="M116.213 105.213H108.305V113.121H116.213V105.213Z" fill="#F2F2F2"/>
<path d="M128.491 105.213H120.582V113.121H128.491V105.213Z" fill="#F2F2F2"/>
<path d="M140.768 105.213H132.859V113.121H140.768V105.213Z" fill="#F2F2F2"/>
<path d="M153.041 105.213H145.133V113.121H153.041V105.213Z" fill="#F2F2F2"/>
<path d="M165.319 105.213H157.41V113.121H165.319V105.213Z" fill="#F2F2F2"/>
<path d="M177.596 105.213H169.688V113.121H177.596V105.213Z" fill="#F2F2F2"/>
<path d="M189.866 105.213H181.957V113.121H189.866V105.213Z" fill="#F2F2F2"/>
<path d="M202.143 105.213H194.234V113.121H202.143V105.213Z" fill="#F2F2F2"/>
<path d="M214.42 105.213H206.512V113.121H214.42V105.213Z" fill="#F2F2F2"/>
<path d="M226.698 105.213H218.789V113.121H226.698V105.213Z" fill="#F2F2F2"/>
<path d="M238.975 105.213H231.066V113.121H238.975V105.213Z" fill="#F2F2F2"/>
<path d="M251.248 105.213H243.34V113.121H251.248V105.213Z" fill="#F2F2F2"/>
<path d="M263.522 105.213H255.613V113.121H263.522V105.213Z" fill="#F2F2F2"/>
<path d="M275.799 105.213H267.891V113.121H275.799V105.213Z" fill="#F2F2F2"/>
<path d="M288.077 105.213H280.168V113.121H288.077V105.213Z" fill="#F2F2F2"/>
<path d="M300.354 105.213H292.445V113.121H300.354V105.213Z" fill="#F2F2F2"/>
<path d="M312.623 105.213H304.715V113.121H312.623V105.213Z" fill="#F2F2F2"/>
<path d="M324.905 105.213H316.996V113.121H324.905V105.213Z" fill="#F2F2F2"/>
<path d="M337.178 105.213H329.27V113.121H337.178V105.213Z" fill="#F2F2F2"/>
<path d="M349.452 105.213H341.543V113.121H349.452V105.213Z" fill="#F2F2F2"/>
<path d="M361.729 105.213H353.82V113.121H361.729V105.213Z" fill="#F2F2F2"/>
<path d="M374.002 105.213H366.094V113.121H374.002V105.213Z" fill="#F2F2F2"/>
<path d="M5.73281 131.019H-2.17578V138.927H5.73281V131.019Z" fill="#F2F2F2"/>
<path d="M18.0102 131.019H10.1016V138.927H18.0102V131.019Z" fill="#F2F2F2"/>
<path d="M30.2875 131.019H22.3789V138.927H30.2875V131.019Z" fill="#F2F2F2"/>
<path d="M42.557 131.019H34.6484V138.927H42.557V131.019Z" fill="#F2F2F2"/>
<path d="M54.8383 131.019H46.9297V138.927H54.8383V131.019Z" fill="#F2F2F2"/>
<path d="M67.1117 131.019H59.2031V138.927H67.1117V131.019Z" fill="#F2F2F2"/>
<path d="M79.3851 131.019H71.4766V138.927H79.3851V131.019Z" fill="#F2F2F2"/>
<path d="M91.6625 131.019H83.7539V138.927H91.6625V131.019Z" fill="#F2F2F2"/>
<path d="M103.936 131.019H96.0273V138.927H103.936V131.019Z" fill="#F2F2F2"/>
<path d="M116.213 131.019H108.305V138.927H116.213V131.019Z" fill="#F2F2F2"/>
<path d="M128.491 131.019H120.582V138.927H128.491V131.019Z" fill="#F2F2F2"/>
<path d="M140.768 131.019H132.859V138.927H140.768V131.019Z" fill="#F2F2F2"/>
<path d="M153.041 131.019H145.133V138.927H153.041V131.019Z" fill="#F2F2F2"/>
<path d="M165.319 131.019H157.41V138.927H165.319V131.019Z" fill="#F2F2F2"/>
<path d="M177.596 131.019H169.688V138.927H177.596V131.019Z" fill="#F2F2F2"/>
<path d="M189.866 131.019H181.957V138.927H189.866V131.019Z" fill="#F2F2F2"/>
<path d="M202.143 131.019H194.234V138.927H202.143V131.019Z" fill="#F2F2F2"/>
<path d="M214.42 131.019H206.512V138.927H214.42V131.019Z" fill="#F2F2F2"/>
<path d="M226.698 131.019H218.789V138.927H226.698V131.019Z" fill="#F2F2F2"/>
<path d="M238.975 131.019H231.066V138.927H238.975V131.019Z" fill="#F2F2F2"/>
<path d="M251.248 131.019H243.34V138.927H251.248V131.019Z" fill="#F2F2F2"/>
<path d="M263.522 131.019H255.613V138.927H263.522V131.019Z" fill="#F2F2F2"/>
<path d="M275.799 131.019H267.891V138.927H275.799V131.019Z" fill="#F2F2F2"/>
<path d="M288.077 131.019H280.168V138.927H288.077V131.019Z" fill="#F2F2F2"/>
<path d="M300.354 131.019H292.445V138.927H300.354V131.019Z" fill="#F2F2F2"/>
<path d="M312.623 131.019H304.715V138.927H312.623V131.019Z" fill="#F2F2F2"/>
<path d="M324.905 131.019H316.996V138.927H324.905V131.019Z" fill="#F2F2F2"/>
<path d="M337.178 131.019H329.27V138.927H337.178V131.019Z" fill="#F2F2F2"/>
<path d="M349.452 131.019H341.543V138.927H349.452V131.019Z" fill="#F2F2F2"/>
<path d="M361.729 131.019H353.82V138.927H361.729V131.019Z" fill="#F2F2F2"/>
<path d="M374.002 131.019H366.094V138.927H374.002V131.019Z" fill="#F2F2F2"/>
<path d="M5.73281 156.823H-2.17578V164.732H5.73281V156.823Z" fill="#F2F2F2"/>
<path d="M18.0102 156.823H10.1016V164.732H18.0102V156.823Z" fill="#F2F2F2"/>
<path d="M30.2875 156.823H22.3789V164.732H30.2875V156.823Z" fill="#F2F2F2"/>
<path d="M42.557 156.823H34.6484V164.732H42.557V156.823Z" fill="#F2F2F2"/>
<path d="M54.8383 156.823H46.9297V164.732H54.8383V156.823Z" fill="#F2F2F2"/>
<path d="M67.1117 156.823H59.2031V164.732H67.1117V156.823Z" fill="#F2F2F2"/>
<path d="M79.3851 156.823H71.4766V164.732H79.3851V156.823Z" fill="#F2F2F2"/>
<path d="M91.6625 156.823H83.7539V164.732H91.6625V156.823Z" fill="#F2F2F2"/>
<path d="M103.936 156.823H96.0273V164.732H103.936V156.823Z" fill="#F2F2F2"/>
<path d="M116.213 156.823H108.305V164.732H116.213V156.823Z" fill="#F2F2F2"/>
<path d="M128.491 156.823H120.582V164.732H128.491V156.823Z" fill="#F2F2F2"/>
<path d="M140.768 156.823H132.859V164.732H140.768V156.823Z" fill="#F2F2F2"/>
<path d="M153.041 156.823H145.133V164.732H153.041V156.823Z" fill="#F2F2F2"/>
<path d="M165.319 156.823H157.41V164.732H165.319V156.823Z" fill="#F2F2F2"/>
<path d="M177.596 156.823H169.688V164.732H177.596V156.823Z" fill="#F2F2F2"/>
<path d="M189.866 156.823H181.957V164.732H189.866V156.823Z" fill="#F2F2F2"/>
<path d="M202.143 156.823H194.234V164.732H202.143V156.823Z" fill="#F2F2F2"/>
<path d="M214.42 156.823H206.512V164.732H214.42V156.823Z" fill="#F2F2F2"/>
<path d="M226.698 156.823H218.789V164.732H226.698V156.823Z" fill="#F2F2F2"/>
<path d="M238.975 156.823H231.066V164.732H238.975V156.823Z" fill="#F2F2F2"/>
<path d="M251.248 156.823H243.34V164.732H251.248V156.823Z" fill="#F2F2F2"/>
<path d="M263.522 156.823H255.613V164.732H263.522V156.823Z" fill="#F2F2F2"/>
<path d="M275.799 156.823H267.891V164.732H275.799V156.823Z" fill="#F2F2F2"/>
<path d="M288.077 156.823H280.168V164.732H288.077V156.823Z" fill="#F2F2F2"/>
<path d="M300.354 156.823H292.445V164.732H300.354V156.823Z" fill="#F2F2F2"/>
<path d="M312.623 156.823H304.715V164.732H312.623V156.823Z" fill="#F2F2F2"/>
<path d="M324.905 156.823H316.996V164.732H324.905V156.823Z" fill="#F2F2F2"/>
<path d="M337.178 156.823H329.27V164.732H337.178V156.823Z" fill="#F2F2F2"/>
<path d="M349.452 156.823H341.543V164.732H349.452V156.823Z" fill="#F2F2F2"/>
<path d="M361.729 156.823H353.82V164.732H361.729V156.823Z" fill="#F2F2F2"/>
<path d="M374.002 156.823H366.094V164.732H374.002V156.823Z" fill="#F2F2F2"/>
<path d="M5.73281 143.921H-2.17578V151.829H5.73281V143.921Z" fill="#F2F2F2"/>
<path d="M18.0102 143.921H10.1016V151.829H18.0102V143.921Z" fill="#F2F2F2"/>
<path d="M30.2875 143.921H22.3789V151.829H30.2875V143.921Z" fill="#F2F2F2"/>
<path d="M42.557 143.921H34.6484V151.829H42.557V143.921Z" fill="#F2F2F2"/>
<path d="M54.8383 143.921H46.9297V151.829H54.8383V143.921Z" fill="#F2F2F2"/>
<path d="M67.1117 143.921H59.2031V151.829H67.1117V143.921Z" fill="#F2F2F2"/>
<path d="M79.3851 143.921H71.4766V151.829H79.3851V143.921Z" fill="#F2F2F2"/>
<path d="M91.6625 143.921H83.7539V151.829H91.6625V143.921Z" fill="#F2F2F2"/>
<path d="M103.936 143.921H96.0273V151.829H103.936V143.921Z" fill="#F2F2F2"/>
<path d="M116.213 143.921H108.305V151.829H116.213V143.921Z" fill="#F2F2F2"/>
<path d="M128.491 143.921H120.582V151.829H128.491V143.921Z" fill="#F2F2F2"/>
<path d="M140.768 143.921H132.859V151.829H140.768V143.921Z" fill="#F2F2F2"/>
<path d="M153.041 143.921H145.133V151.829H153.041V143.921Z" fill="#F2F2F2"/>
<path d="M165.319 143.921H157.41V151.829H165.319V143.921Z" fill="#F2F2F2"/>
<path d="M177.596 143.921H169.688V151.829H177.596V143.921Z" fill="#F2F2F2"/>
<path d="M189.866 143.921H181.957V151.829H189.866V143.921Z" fill="#F2F2F2"/>
<path d="M202.143 143.921H194.234V151.829H202.143V143.921Z" fill="#F2F2F2"/>
<path d="M214.42 143.921H206.512V151.829H214.42V143.921Z" fill="#F2F2F2"/>
<path d="M226.698 143.921H218.789V151.829H226.698V143.921Z" fill="#F2F2F2"/>
<path d="M238.975 143.921H231.066V151.829H238.975V143.921Z" fill="#F2F2F2"/>
<path d="M251.248 143.921H243.34V151.829H251.248V143.921Z" fill="#F2F2F2"/>
<path d="M263.522 143.921H255.613V151.829H263.522V143.921Z" fill="#F2F2F2"/>
<path d="M275.799 143.921H267.891V151.829H275.799V143.921Z" fill="#F2F2F2"/>
<path d="M288.077 143.921H280.168V151.829H288.077V143.921Z" fill="#F2F2F2"/>
<path d="M300.354 143.921H292.445V151.829H300.354V143.921Z" fill="#F2F2F2"/>
<path d="M312.623 143.921H304.715V151.829H312.623V143.921Z" fill="#F2F2F2"/>
<path d="M324.905 143.921H316.996V151.829H324.905V143.921Z" fill="#F2F2F2"/>
<path d="M337.178 143.921H329.27V151.829H337.178V143.921Z" fill="#F2F2F2"/>
<path d="M349.452 143.921H341.543V151.829H349.452V143.921Z" fill="#F2F2F2"/>
<path d="M361.729 143.921H353.82V151.829H361.729V143.921Z" fill="#F2F2F2"/>
<path d="M374.002 143.921H366.094V151.829H374.002V143.921Z" fill="#F2F2F2"/>
<path d="M5.73281 182.628H-2.17578V190.537H5.73281V182.628Z" fill="#F2F2F2"/>
<path d="M18.0102 182.628H10.1016V190.537H18.0102V182.628Z" fill="#F2F2F2"/>
<path d="M30.2875 182.628H22.3789V190.537H30.2875V182.628Z" fill="#F2F2F2"/>
<path d="M42.557 182.628H34.6484V190.537H42.557V182.628Z" fill="#F2F2F2"/>
<path d="M54.8383 182.628H46.9297V190.537H54.8383V182.628Z" fill="#F2F2F2"/>
<path d="M67.1117 182.628H59.2031V190.537H67.1117V182.628Z" fill="#F2F2F2"/>
<path d="M79.3851 182.628H71.4766V190.537H79.3851V182.628Z" fill="#F2F2F2"/>
<path d="M91.6625 182.628H83.7539V190.537H91.6625V182.628Z" fill="#F2F2F2"/>
<path d="M103.936 182.628H96.0273V190.537H103.936V182.628Z" fill="#F2F2F2"/>
<path d="M116.213 182.628H108.305V190.537H116.213V182.628Z" fill="#F2F2F2"/>
<path d="M128.491 182.628H120.582V190.537H128.491V182.628Z" fill="#F2F2F2"/>
<path d="M140.768 182.628H132.859V190.537H140.768V182.628Z" fill="#F2F2F2"/>
<path d="M153.041 182.628H145.133V190.537H153.041V182.628Z" fill="#F2F2F2"/>
<path d="M165.319 182.628H157.41V190.537H165.319V182.628Z" fill="#F2F2F2"/>
<path d="M177.596 182.628H169.688V190.537H177.596V182.628Z" fill="#F2F2F2"/>
<path d="M189.866 182.628H181.957V190.537H189.866V182.628Z" fill="#F2F2F2"/>
<path d="M202.143 182.628H194.234V190.537H202.143V182.628Z" fill="#F2F2F2"/>
<path d="M214.42 182.628H206.512V190.537H214.42V182.628Z" fill="#F2F2F2"/>
<path d="M226.698 182.628H218.789V190.537H226.698V182.628Z" fill="#F2F2F2"/>
<path d="M238.975 182.628H231.066V190.537H238.975V182.628Z" fill="#F2F2F2"/>
<path d="M251.248 182.628H243.34V190.537H251.248V182.628Z" fill="#F2F2F2"/>
<path d="M263.522 182.628H255.613V190.537H263.522V182.628Z" fill="#F2F2F2"/>
<path d="M275.799 182.628H267.891V190.537H275.799V182.628Z" fill="#F2F2F2"/>
<path d="M324.905 182.628H316.996V190.537H324.905V182.628Z" fill="#F2F2F2"/>
<path d="M337.178 182.628H329.27V190.537H337.178V182.628Z" fill="#F2F2F2"/>
<path d="M349.452 182.628H341.543V190.537H349.452V182.628Z" fill="#F2F2F2"/>
<path d="M5.73281 169.726H-2.17578V177.635H5.73281V169.726Z" fill="#F2F2F2"/>
<path d="M18.0102 169.726H10.1016V177.635H18.0102V169.726Z" fill="#F2F2F2"/>
<path d="M30.2875 169.726H22.3789V177.635H30.2875V169.726Z" fill="#F2F2F2"/>
<path d="M42.557 169.726H34.6484V177.635H42.557V169.726Z" fill="#F2F2F2"/>
<path d="M54.8383 169.726H46.9297V177.635H54.8383V169.726Z" fill="#F2F2F2"/>
<path d="M67.1117 169.726H59.2031V177.635H67.1117V169.726Z" fill="#F2F2F2"/>
<path d="M79.3851 169.726H71.4766V177.635H79.3851V169.726Z" fill="#F2F2F2"/>
<path d="M91.6625 169.726H83.7539V177.635H91.6625V169.726Z" fill="#F2F2F2"/>
<path d="M103.936 169.726H96.0273V177.635H103.936V169.726Z" fill="#F2F2F2"/>
<path d="M116.213 169.726H108.305V177.635H116.213V169.726Z" fill="#F2F2F2"/>
<path d="M128.491 169.726H120.582V177.635H128.491V169.726Z" fill="#F2F2F2"/>
<path d="M140.768 169.726H132.859V177.635H140.768V169.726Z" fill="#F2F2F2"/>
<path d="M153.041 169.726H145.133V177.635H153.041V169.726Z" fill="#F2F2F2"/>
<path d="M165.319 169.726H157.41V177.635H165.319V169.726Z" fill="#F2F2F2"/>
<path d="M177.596 169.726H169.688V177.635H177.596V169.726Z" fill="#F2F2F2"/>
<path d="M189.866 169.726H181.957V177.635H189.866V169.726Z" fill="#F2F2F2"/>
<path d="M202.143 169.726H194.234V177.635H202.143V169.726Z" fill="#F2F2F2"/>
<path d="M214.42 169.726H206.512V177.635H214.42V169.726Z" fill="#F2F2F2"/>
<path d="M226.698 169.726H218.789V177.635H226.698V169.726Z" fill="#F2F2F2"/>
<path d="M238.975 169.726H231.066V177.635H238.975V169.726Z" fill="#F2F2F2"/>
<path d="M251.248 169.726H243.34V177.635H251.248V169.726Z" fill="#F2F2F2"/>
<path d="M263.522 169.726H255.613V177.635H263.522V169.726Z" fill="#F2F2F2"/>
<path d="M275.799 169.726H267.891V177.635H275.799V169.726Z" fill="#F2F2F2"/>
<path d="M288.077 169.726H280.168V177.635H288.077V169.726Z" fill="#F2F2F2"/>
<path d="M324.905 169.726H316.996V177.635H324.905V169.726Z" fill="#F2F2F2"/>
<path d="M337.178 169.726H329.27V177.635H337.178V169.726Z" fill="#F2F2F2"/>
<path d="M349.452 169.726H341.543V177.635H349.452V169.726Z" fill="#F2F2F2"/>
<path d="M5.73281 195.53H-2.17578V203.439H5.73281V195.53Z" fill="#F2F2F2"/>
<path d="M18.0102 195.53H10.1016V203.439H18.0102V195.53Z" fill="#F2F2F2"/>
<path d="M30.2875 195.53H22.3789V203.439H30.2875V195.53Z" fill="#F2F2F2"/>
<path d="M42.557 195.53H34.6484V203.439H42.557V195.53Z" fill="#F2F2F2"/>
<path d="M54.8383 195.53H46.9297V203.439H54.8383V195.53Z" fill="#F2F2F2"/>
<path d="M67.1117 195.53H59.2031V203.439H67.1117V195.53Z" fill="#F2F2F2"/>
<path d="M79.3851 195.53H71.4766V203.439H79.3851V195.53Z" fill="#F2F2F2"/>
<path d="M91.6625 195.53H83.7539V203.439H91.6625V195.53Z" fill="#F2F2F2"/>
<path d="M103.936 195.53H96.0273V203.439H103.936V195.53Z" fill="#F2F2F2"/>
<path d="M116.213 195.53H108.305V203.439H116.213V195.53Z" fill="#F2F2F2"/>
<path d="M128.491 195.53H120.582V203.439H128.491V195.53Z" fill="#F2F2F2"/>
<path d="M140.768 195.53H132.859V203.439H140.768V195.53Z" fill="#F2F2F2"/>
<path d="M153.041 195.53H145.133V203.439H153.041V195.53Z" fill="#F2F2F2"/>
<path d="M165.319 195.53H157.41V203.439H165.319V195.53Z" fill="#F2F2F2"/>
<path d="M177.596 195.53H169.688V203.439H177.596V195.53Z" fill="#F2F2F2"/>
<path d="M189.866 195.53H181.957V203.439H189.866V195.53Z" fill="#F2F2F2"/>
<path d="M202.143 195.53H194.234V203.439H202.143V195.53Z" fill="#F2F2F2"/>
<path d="M214.42 195.53H206.512V203.439H214.42V195.53Z" fill="#F2F2F2"/>
<path d="M226.698 195.53H218.789V203.439H226.698V195.53Z" fill="#F2F2F2"/>
<path d="M238.975 195.53H231.066V203.439H238.975V195.53Z" fill="#F2F2F2"/>
<path d="M251.248 195.53H243.34V203.439H251.248V195.53Z" fill="#F2F2F2"/>
<path d="M263.522 195.53H255.613V203.439H263.522V195.53Z" fill="#F2F2F2"/>
<path d="M275.799 195.53H267.891V203.439H275.799V195.53Z" fill="#F2F2F2"/>
<path d="M288.077 195.53H280.168V203.439H288.077V195.53Z" fill="#F2F2F2"/>
<path d="M337.178 195.53H329.27V203.439H337.178V195.53Z" fill="#F2F2F2"/>
<path d="M5.73281 208.433H-2.17578V216.341H5.73281V208.433Z" fill="#F2F2F2"/>
<path d="M18.0102 208.433H10.1016V216.341H18.0102V208.433Z" fill="#F2F2F2"/>
<path d="M30.2875 208.433H22.3789V216.341H30.2875V208.433Z" fill="#F2F2F2"/>
<path d="M42.557 208.433H34.6484V216.341H42.557V208.433Z" fill="#F2F2F2"/>
<path d="M54.8383 208.433H46.9297V216.341H54.8383V208.433Z" fill="#F2F2F2"/>
<path d="M67.1117 208.433H59.2031V216.341H67.1117V208.433Z" fill="#F2F2F2"/>
<path d="M79.3851 208.433H71.4766V216.341H79.3851V208.433Z" fill="#F2F2F2"/>
<path d="M91.6625 208.433H83.7539V216.341H91.6625V208.433Z" fill="#F2F2F2"/>
<path d="M103.936 208.433H96.0273V216.341H103.936V208.433Z" fill="#F2F2F2"/>
<path d="M116.213 208.433H108.305V216.341H116.213V208.433Z" fill="#F2F2F2"/>
<path d="M128.491 208.433H120.582V216.341H128.491V208.433Z" fill="#F2F2F2"/>
<path d="M140.768 208.433H132.859V216.341H140.768V208.433Z" fill="#F2F2F2"/>
<path d="M153.041 208.433H145.133V216.341H153.041V208.433Z" fill="#F2F2F2"/>
<path d="M165.319 208.433H157.41V216.341H165.319V208.433Z" fill="#F2F2F2"/>
<path d="M177.596 208.433H169.688V216.341H177.596V208.433Z" fill="#F2F2F2"/>
<path d="M189.866 208.433H181.957V216.341H189.866V208.433Z" fill="#F2F2F2"/>
<path d="M202.143 208.433H194.234V216.341H202.143V208.433Z" fill="#F2F2F2"/>
<path d="M214.42 208.433H206.512V216.341H214.42V208.433Z" fill="#F2F2F2"/>
<path d="M226.698 208.433H218.789V216.341H226.698V208.433Z" fill="#F2F2F2"/>
<path d="M238.975 208.433H231.066V216.341H238.975V208.433Z" fill="#F2F2F2"/>
<path d="M251.248 208.433H243.34V216.341H251.248V208.433Z" fill="#F2F2F2"/>
<path d="M263.522 208.433H255.613V216.341H263.522V208.433Z" fill="#F2F2F2"/>
<path d="M275.799 208.433H267.891V216.341H275.799V208.433Z" fill="#F2F2F2"/>
<path d="M5.73281 221.335H-2.17578V229.244H5.73281V221.335Z" fill="#F2F2F2"/>
<path d="M18.0102 221.335H10.1016V229.244H18.0102V221.335Z" fill="#F2F2F2"/>
<path d="M30.2875 221.335H22.3789V229.244H30.2875V221.335Z" fill="#F2F2F2"/>
<path d="M42.557 221.335H34.6484V229.244H42.557V221.335Z" fill="#F2F2F2"/>
<path d="M54.8383 221.335H46.9297V229.244H54.8383V221.335Z" fill="#F2F2F2"/>
<path d="M67.1117 221.335H59.2031V229.244H67.1117V221.335Z" fill="#F2F2F2"/>
<path d="M79.3851 221.335H71.4766V229.244H79.3851V221.335Z" fill="#F2F2F2"/>
<path d="M91.6625 221.335H83.7539V229.244H91.6625V221.335Z" fill="#F2F2F2"/>
<path d="M103.936 221.335H96.0273V229.244H103.936V221.335Z" fill="#F2F2F2"/>
<path d="M116.213 221.335H108.305V229.244H116.213V221.335Z" fill="#F2F2F2"/>
<path d="M128.491 221.335H120.582V229.244H128.491V221.335Z" fill="#F2F2F2"/>
<path d="M140.768 221.335H132.859V229.244H140.768V221.335Z" fill="#F2F2F2"/>
<path d="M153.041 221.335H145.133V229.244H153.041V221.335Z" fill="#F2F2F2"/>
<path d="M165.319 221.335H157.41V229.244H165.319V221.335Z" fill="#F2F2F2"/>
<path d="M177.596 221.335H169.688V229.244H177.596V221.335Z" fill="#F2F2F2"/>
<path d="M189.866 221.335H181.957V229.244H189.866V221.335Z" fill="#F2F2F2"/>
<path d="M202.143 221.335H194.234V229.244H202.143V221.335Z" fill="#F2F2F2"/>
<path d="M214.42 221.335H206.512V229.244H214.42V221.335Z" fill="#F2F2F2"/>
<path d="M226.698 221.335H218.789V229.244H226.698V221.335Z" fill="#F2F2F2"/>
<path d="M238.975 221.335H231.066V229.244H238.975V221.335Z" fill="#F2F2F2"/>
<path d="M251.248 221.335H243.34V229.244H251.248V221.335Z" fill="#F2F2F2"/>
<path d="M263.522 221.335H255.613V229.244H263.522V221.335Z" fill="#F2F2F2"/>
<path d="M275.799 221.335H267.891V229.244H275.799V221.335Z" fill="#F2F2F2"/>
<path d="M5.73281 234.237H-2.17578V242.146H5.73281V234.237Z" fill="#F2F2F2"/>
<path d="M18.0102 234.237H10.1016V242.146H18.0102V234.237Z" fill="#F2F2F2"/>
<path d="M30.2875 234.237H22.3789V242.146H30.2875V234.237Z" fill="#F2F2F2"/>
<path d="M42.557 234.237H34.6484V242.146H42.557V234.237Z" fill="#F2F2F2"/>
<path d="M54.8383 234.237H46.9297V242.146H54.8383V234.237Z" fill="#F2F2F2"/>
<path d="M67.1117 234.237H59.2031V242.146H67.1117V234.237Z" fill="#F2F2F2"/>
<path d="M79.3851 234.237H71.4766V242.146H79.3851V234.237Z" fill="#F2F2F2"/>
<path d="M91.6625 234.237H83.7539V242.146H91.6625V234.237Z" fill="#F2F2F2"/>
<path d="M103.936 234.237H96.0273V242.146H103.936V234.237Z" fill="#F2F2F2"/>
<path d="M116.213 234.237H108.305V242.146H116.213V234.237Z" fill="#F2F2F2"/>
<path d="M128.491 234.237H120.582V242.146H128.491V234.237Z" fill="#F2F2F2"/>
<path d="M140.768 234.237H132.859V242.146H140.768V234.237Z" fill="#F2F2F2"/>
<path d="M153.041 234.237H145.133V242.146H153.041V234.237Z" fill="#F2F2F2"/>
<path d="M165.319 234.237H157.41V242.146H165.319V234.237Z" fill="#F2F2F2"/>
<path d="M177.596 234.237H169.688V242.146H177.596V234.237Z" fill="#F2F2F2"/>
<path d="M189.866 234.237H181.957V242.146H189.866V234.237Z" fill="#F2F2F2"/>
<path d="M202.143 234.237H194.234V242.146H202.143V234.237Z" fill="#F2F2F2"/>
<path d="M214.42 234.237H206.512V242.146H214.42V234.237Z" fill="#F2F2F2"/>
<path d="M226.698 234.237H218.789V242.146H226.698V234.237Z" fill="#F2F2F2"/>
<path d="M238.975 234.237H231.066V242.146H238.975V234.237Z" fill="#F2F2F2"/>
<path d="M251.248 234.237H243.34V242.146H251.248V234.237Z" fill="#F2F2F2"/>
<path d="M263.522 234.237H255.613V242.146H263.522V234.237Z" fill="#F2F2F2"/>
<path d="M288.077 234.237H280.168V242.146H288.077V234.237Z" fill="#FDD000"/>
<path d="M300.354 234.237H292.445V242.146H300.354V234.237Z" fill="#F2F2F2"/>
<path d="M5.73281 247.14H-2.17578V255.048H5.73281V247.14Z" fill="#F2F2F2"/>
<path d="M18.0102 247.14H10.1016V255.048H18.0102V247.14Z" fill="#F2F2F2"/>
<path d="M30.2875 247.14H22.3789V255.048H30.2875V247.14Z" fill="#F2F2F2"/>
<path d="M42.557 247.14H34.6484V255.048H42.557V247.14Z" fill="#F2F2F2"/>
<path d="M54.8383 247.14H46.9297V255.048H54.8383V247.14Z" fill="#F2F2F2"/>
<path d="M67.1117 247.14H59.2031V255.048H67.1117V247.14Z" fill="#F2F2F2"/>
<path d="M79.3851 247.14H71.4766V255.048H79.3851V247.14Z" fill="#F2F2F2"/>
<path d="M91.6625 247.14H83.7539V255.048H91.6625V247.14Z" fill="#F2F2F2"/>
<path d="M103.936 247.14H96.0273V255.048H103.936V247.14Z" fill="#F2F2F2"/>
<path d="M116.213 247.14H108.305V255.048H116.213V247.14Z" fill="#F2F2F2"/>
<path d="M128.491 247.14H120.582V255.048H128.491V247.14Z" fill="#F2F2F2"/>
<path d="M140.768 247.14H132.859V255.048H140.768V247.14Z" fill="#F2F2F2"/>
<path d="M153.041 247.14H145.133V255.048H153.041V247.14Z" fill="#F2F2F2"/>
<path d="M165.319 247.14H157.41V255.048H165.319V247.14Z" fill="#F2F2F2"/>
<path d="M177.596 247.14H169.688V255.048H177.596V247.14Z" fill="#F2F2F2"/>
<path d="M189.866 247.14H181.957V255.048H189.866V247.14Z" fill="#F2F2F2"/>
<path d="M202.143 247.14H194.234V255.048H202.143V247.14Z" fill="#F2F2F2"/>
<path d="M214.42 247.14H206.512V255.048H214.42V247.14Z" fill="#F2F2F2"/>
<path d="M226.698 247.14H218.789V255.048H226.698V247.14Z" fill="#F2F2F2"/>
<path d="M238.975 247.14H231.066V255.048H238.975V247.14Z" fill="#F2F2F2"/>
<path d="M251.248 247.14H243.34V255.048H251.248V247.14Z" fill="#F2F2F2"/>
<path d="M288.077 247.14H280.168V255.048H288.077V247.14Z" fill="#F2F2F2"/>
<path d="M5.73281 272.945H-2.17578V280.854H5.73281V272.945Z" fill="#F2F2F2"/>
<path d="M18.0102 272.945H10.1016V280.854H18.0102V272.945Z" fill="#F2F2F2"/>
<path d="M30.2875 272.945H22.3789V280.854H30.2875V272.945Z" fill="#F2F2F2"/>
<path d="M42.557 272.945H34.6484V280.854H42.557V272.945Z" fill="#F2F2F2"/>
<path d="M54.8383 272.945H46.9297V280.854H54.8383V272.945Z" fill="#F2F2F2"/>
<path d="M67.1117 272.945H59.2031V280.854H67.1117V272.945Z" fill="#F2F2F2"/>
<path d="M79.3851 272.945H71.4766V280.854H79.3851V272.945Z" fill="#F2F2F2"/>
<path d="M91.6625 272.945H83.7539V280.854H91.6625V272.945Z" fill="#F2F2F2"/>
<path d="M103.936 272.945H96.0273V280.854H103.936V272.945Z" fill="#F2F2F2"/>
<path d="M116.213 272.945H108.305V280.854H116.213V272.945Z" fill="#F2F2F2"/>
<path d="M128.491 272.945H120.582V280.854H128.491V272.945Z" fill="#F2F2F2"/>
<path d="M140.768 272.945H132.859V280.854H140.768V272.945Z" fill="#F2F2F2"/>
<path d="M153.041 272.945H145.133V280.854H153.041V272.945Z" fill="#F2F2F2"/>
<path d="M165.319 272.945H157.41V280.854H165.319V272.945Z" fill="#F2F2F2"/>
<path d="M177.596 272.945H169.688V280.854H177.596V272.945Z" fill="#F2F2F2"/>
<path d="M189.866 272.945H181.957V280.854H189.866V272.945Z" fill="#F2F2F2"/>
<path d="M202.143 272.945H194.234V280.854H202.143V272.945Z" fill="#F2F2F2"/>
<path d="M214.42 272.945H206.512V280.854H214.42V272.945Z" fill="#F2F2F2"/>
<path d="M226.698 272.945H218.789V280.854H226.698V272.945Z" fill="#F2F2F2"/>
<path d="M263.522 272.945H255.613V280.854H263.522V272.945Z" fill="#F2F2F2"/>
<path d="M275.799 272.945H267.891V280.854H275.799V272.945Z" fill="#F2F2F2"/>
<path d="M5.73281 285.847H-2.17578V293.755H5.73281V285.847Z" fill="#F2F2F2"/>
<path d="M18.0102 285.847H10.1016V293.755H18.0102V285.847Z" fill="#F2F2F2"/>
<path d="M30.2875 285.847H22.3789V293.755H30.2875V285.847Z" fill="#F2F2F2"/>
<path d="M42.557 285.847H34.6484V293.755H42.557V285.847Z" fill="#F2F2F2"/>
<path d="M54.8383 285.847H46.9297V293.755H54.8383V285.847Z" fill="#F2F2F2"/>
<path d="M67.1117 285.847H59.2031V293.755H67.1117V285.847Z" fill="#F2F2F2"/>
<path d="M79.3851 285.847H71.4766V293.755H79.3851V285.847Z" fill="#F2F2F2"/>
<path d="M91.6625 285.847H83.7539V293.755H91.6625V285.847Z" fill="#F2F2F2"/>
<path d="M103.936 285.847H96.0273V293.755H103.936V285.847Z" fill="#F2F2F2"/>
<path d="M116.213 285.847H108.305V293.755H116.213V285.847Z" fill="#F2F2F2"/>
<path d="M128.491 285.847H120.582V293.755H128.491V285.847Z" fill="#F2F2F2"/>
<path d="M140.768 285.847H132.859V293.755H140.768V285.847Z" fill="#F2F2F2"/>
<path d="M153.041 285.847H145.133V293.755H153.041V285.847Z" fill="#F2F2F2"/>
<path d="M165.319 285.847H157.41V293.755H165.319V285.847Z" fill="#F2F2F2"/>
<path d="M177.596 285.847H169.688V293.755H177.596V285.847Z" fill="#F2F2F2"/>
<path d="M189.866 285.847H181.957V293.755H189.866V285.847Z" fill="#F2F2F2"/>
<path d="M202.143 285.847H194.234V293.755H202.143V285.847Z" fill="#F2F2F2"/>
<path d="M214.42 285.847H206.512V293.755H214.42V285.847Z" fill="#F2F2F2"/>
<path d="M226.698 285.847H218.789V293.755H226.698V285.847Z" fill="#F2F2F2"/>
<path d="M5.73281 298.75H-2.17578V306.658H5.73281V298.75Z" fill="#F2F2F2"/>
<path d="M18.0102 298.75H10.1016V306.658H18.0102V298.75Z" fill="#F2F2F2"/>
<path d="M30.2875 298.75H22.3789V306.658H30.2875V298.75Z" fill="#F2F2F2"/>
<path d="M42.557 298.75H34.6484V306.658H42.557V298.75Z" fill="#F2F2F2"/>
<path d="M54.8383 298.75H46.9297V306.658H54.8383V298.75Z" fill="#F2F2F2"/>
<path d="M67.1117 298.75H59.2031V306.658H67.1117V298.75Z" fill="#F2F2F2"/>
<path d="M79.3851 298.75H71.4766V306.658H79.3851V298.75Z" fill="#F2F2F2"/>
<path d="M91.6625 298.75H83.7539V306.658H91.6625V298.75Z" fill="#F2F2F2"/>
<path d="M103.936 298.75H96.0273V306.658H103.936V298.75Z" fill="#F2F2F2"/>
<path d="M116.213 298.75H108.305V306.658H116.213V298.75Z" fill="#F2F2F2"/>
<path d="M128.491 298.75H120.582V306.658H128.491V298.75Z" fill="#F2F2F2"/>
<path d="M140.768 298.75H132.859V306.658H140.768V298.75Z" fill="#F2F2F2"/>
<path d="M153.041 298.75H145.133V306.658H153.041V298.75Z" fill="#F2F2F2"/>
<path d="M165.319 298.75H157.41V306.658H165.319V298.75Z" fill="#F2F2F2"/>
<path d="M177.596 298.75H169.688V306.658H177.596V298.75Z" fill="#F2F2F2"/>
<path d="M189.866 298.75H181.957V306.658H189.866V298.75Z" fill="#F2F2F2"/>
<path d="M202.143 298.75H194.234V306.658H202.143V298.75Z" fill="#F2F2F2"/>
<path d="M214.42 298.75H206.512V306.658H214.42V298.75Z" fill="#F2F2F2"/>
<path d="M226.698 298.75H218.789V306.658H226.698V298.75Z" fill="#F2F2F2"/>
<path d="M18.0102 311.652H10.1016V319.561H18.0102V311.652Z" fill="#F2F2F2"/>
<path d="M30.2875 311.652H22.3789V319.561H30.2875V311.652Z" fill="#F2F2F2"/>
<path d="M42.557 311.652H34.6484V319.561H42.557V311.652Z" fill="#F2F2F2"/>
<path d="M54.8383 311.652H46.9297V319.561H54.8383V311.652Z" fill="#F2F2F2"/>
<path d="M103.936 311.652H96.0273V319.561H103.936V311.652Z" fill="#F2F2F2"/>
<path d="M116.213 311.652H108.305V319.561H116.213V311.652Z" fill="#F2F2F2"/>
<path d="M128.491 311.652H120.582V319.561H128.491V311.652Z" fill="#F2F2F2"/>
<path d="M140.768 311.652H132.859V319.561H140.768V311.652Z" fill="#F2F2F2"/>
<path d="M165.319 311.652H157.41V319.561H165.319V311.652Z" fill="#F2F2F2"/>
<path d="M177.596 311.652H169.688V319.561H177.596V311.652Z" fill="#F2F2F2"/>
<path d="M189.866 311.652H181.957V319.561H189.866V311.652Z" fill="#F2F2F2"/>
<path d="M18.0102 324.555H10.1016V332.463H18.0102V324.555Z" fill="#F2F2F2"/>
<path d="M30.2875 324.555H22.3789V332.463H30.2875V324.555Z" fill="#F2F2F2"/>
<path d="M103.936 324.555H96.0273V332.463H103.936V324.555Z" fill="#F2F2F2"/>
<path d="M116.213 324.555H108.305V332.463H116.213V324.555Z" fill="#F2F2F2"/>
<path d="M177.596 324.555H169.688V332.463H177.596V324.555Z" fill="#F2F2F2"/>
<path d="M189.866 324.555H181.957V332.463H189.866V324.555Z" fill="#F2F2F2"/>
<path d="M202.143 324.555H194.234V332.463H202.143V324.555Z" fill="#F2F2F2"/>
<path d="M238.975 324.555H231.066V332.463H238.975V324.555Z" fill="#F2F2F2"/>
<path d="M5.73281 337.457H-2.17578V345.366H5.73281V337.457Z" fill="#F2F2F2"/>
<path d="M18.0102 337.457H10.1016V345.366H18.0102V337.457Z" fill="#F2F2F2"/>
<path d="M30.2875 337.457H22.3789V345.366H30.2875V337.457Z" fill="#F2F2F2"/>
<path d="M96.0273 345.366V337.457H103.936" fill="#F2F2F2"/>
<path d="M116.213 337.457H108.305V345.366H116.213V337.457Z" fill="#F2F2F2"/>
<path d="M177.596 337.457H169.688V345.366H177.596V337.457Z" fill="#F2F2F2"/>
<path d="M189.866 337.457H181.957V345.366H189.866V337.457Z" fill="#F2F2F2"/>
<path d="M238.975 337.457H231.066V345.366H238.975V337.457Z" fill="#F2F2F2"/>
<path d="M251.248 337.457H243.34V345.366H251.248V337.457Z" fill="#F2F2F2"/>
<path d="M5.73281 350.359H-2.17578V358.267H5.73281V350.359Z" fill="#F2F2F2"/>
<path d="M18.0102 350.359H10.1016V358.267H18.0102V350.359Z" fill="#F2F2F2"/>
<path d="M30.2875 350.359H22.3789V358.267H30.2875V350.359Z" fill="#F2F2F2"/>
<path d="M165.319 350.359H157.41V358.267H165.319V350.359Z" fill="#F2F2F2"/>
<path d="M202.143 350.359H194.234V358.267H202.143V350.359Z" fill="#F2F2F2"/>
<path d="M226.698 350.359H218.789V358.267H226.698V350.359Z" fill="#F2F2F2"/>
<path d="M5.73281 363.262H-2.17578V371.171H5.73281V363.262Z" fill="#F2F2F2"/>
<path d="M18.0102 363.262H10.1016V371.171H18.0102V363.262Z" fill="#F2F2F2"/>
<path d="M165.319 363.262H157.41V371.171H165.319V363.262Z" fill="#F2F2F2"/>
<path d="M202.143 363.262H194.234V371.171H202.143V363.262Z" fill="#F2F2F2"/>
<path d="M214.42 363.262H206.512V371.171H214.42V363.262Z" fill="#F2F2F2"/>
<path d="M226.698 363.262H218.789V371.171H226.698V363.262Z" fill="#F2F2F2"/>
<path d="M5.73281 376.165H-2.17578V384.074H5.73281V376.165Z" fill="#F2F2F2"/>
<path d="M177.596 376.165H169.688V384.074H177.596V376.165Z" fill="#F2F2F2"/>
<path d="M189.866 376.165H181.957V384.074H189.866V376.165Z" fill="#F2F2F2"/>
<path d="M189.866 389.066H181.957V396.975H189.866V389.066Z" fill="#F2F2F2"/>
<path d="M202.143 389.066H194.234V396.975H202.143V389.066Z" fill="#F2F2F2"/>
<path d="M5.73281 401.969H-2.17578V409.878H5.73281V401.969Z" fill="#F2F2F2"/>
<path d="M263.522 401.969H255.613V409.878H263.522V401.969Z" fill="#F2F2F2"/>
<path d="M275.799 401.969H267.891V409.878H275.799V401.969Z" fill="#F2F2F2"/>
<path d="M288.077 401.969H280.168V409.878H288.077V401.969Z" fill="#F2F2F2"/>
<path d="M300.354 401.969H292.445V409.878H300.354V401.969Z" fill="#F2F2F2"/>
<path d="M361.729 401.969H353.82V409.878H361.729V401.969Z" fill="#F2F2F2"/>
<path d="M18.0102 414.872H10.1016V422.781H18.0102V414.872Z" fill="#F2F2F2"/>
<path d="M30.2875 414.872H22.3789V422.781H30.2875V414.872Z" fill="#F2F2F2"/>
<path d="M238.975 414.872H231.066V422.781H238.975V414.872Z" fill="#F2F2F2"/>
<path d="M251.248 414.872H243.34V422.781H251.248V414.872Z" fill="#F2F2F2"/>
<path d="M263.522 414.872H255.613V422.781H263.522V414.872Z" fill="#F2F2F2"/>
<path d="M275.799 414.872H267.891V422.781H275.799V414.872Z" fill="#F2F2F2"/>
<path d="M288.077 414.872H280.168V422.781H288.077V414.872Z" fill="#F2F2F2"/>
<path d="M300.354 414.872H292.445V422.781H300.354V414.872Z" fill="#F2F2F2"/>
<path d="M361.729 414.872H353.82V422.781H361.729V414.872Z" fill="#F2F2F2"/>
<path d="M374.002 414.872H366.094V422.781H374.002V414.872Z" fill="#F2F2F2"/>
<path d="M18.0102 427.774H10.1016V435.683H18.0102V427.774Z" fill="#F2F2F2"/>
<path d="M30.2875 427.774H22.3789V435.683H30.2875V427.774Z" fill="#F2F2F2"/>
<path d="M214.42 427.774H206.512V435.683H214.42V427.774Z" fill="#F2F2F2"/>
<path d="M226.698 427.774H218.789V435.683H226.698V427.774Z" fill="#F2F2F2"/>
<path d="M238.975 427.774H231.066V435.683H238.975V427.774Z" fill="#F2F2F2"/>
<path d="M251.248 427.774H243.34V435.683H251.248V427.774Z" fill="#F2F2F2"/>
<path d="M263.522 427.774H255.613V435.683H263.522V427.774Z" fill="#F2F2F2"/>
<path d="M275.799 427.774H267.891V435.683H275.799V427.774Z" fill="#F2F2F2"/>
<path d="M288.077 427.774H280.168V435.683H288.077V427.774Z" fill="#F2F2F2"/>
<path d="M300.354 427.774H292.445V435.683H300.354V427.774Z" fill="#F2F2F2"/>
<path d="M312.623 427.774H304.715V435.683H312.623V427.774Z" fill="#F2F2F2"/>
<path d="M18.0102 440.675H10.1016V448.584H18.0102V440.675Z" fill="#F2F2F2"/>
<path d="M30.2875 440.675H22.3789V448.584H30.2875V440.675Z" fill="#F2F2F2"/>
<path d="M214.42 440.675H206.512V448.584H214.42V440.675Z" fill="#F2F2F2"/>
<path d="M226.698 440.675H218.789V448.584H226.698V440.675Z" fill="#F2F2F2"/>
<path d="M238.975 440.675H231.066V448.584H238.975V440.675Z" fill="#F2F2F2"/>
<path d="M251.248 440.675H243.34V448.584H251.248V440.675Z" fill="#F2F2F2"/>
<path d="M263.522 440.675H255.613V448.584H263.522V440.675Z" fill="#F2F2F2"/>
<path d="M275.799 440.675H267.891V448.584H275.799V440.675Z" fill="#F2F2F2"/>
<path d="M288.077 440.675H280.168V448.584H288.077V440.675Z" fill="#F2F2F2"/>
<path d="M300.354 440.675H292.445V448.584H300.354V440.675Z" fill="#F2F2F2"/>
<path d="M312.623 440.675H304.715V448.584H312.623V440.675Z" fill="#F2F2F2"/>
<path d="M214.42 453.579H206.512V461.488H214.42V453.579Z" fill="#F2F2F2"/>
<path d="M226.698 453.579H218.789V461.488H226.698V453.579Z" fill="#F2F2F2"/>
<path d="M238.975 453.579H231.066V461.488H238.975V453.579Z" fill="#F2F2F2"/>
<path d="M251.248 453.579H243.34V461.488H251.248V453.579Z" fill="#F2F2F2"/>
<path d="M263.522 453.579H255.613V461.488H263.522V453.579Z" fill="#F2F2F2"/>
<path d="M275.799 453.579H267.891V461.488H275.799V453.579Z" fill="#F2F2F2"/>
<path d="M288.077 453.579H280.168V461.488H288.077V453.579Z" fill="#F2F2F2"/>
<path d="M300.354 453.579H292.445V461.488H300.354V453.579Z" fill="#F2F2F2"/>
<path d="M312.623 453.579H304.715V461.488H312.623V453.579Z" fill="#F2F2F2"/>
<path d="M226.698 466.481H218.789V474.39H226.698V466.481Z" fill="#F2F2F2"/>
<path d="M238.975 466.481H231.066V474.39H238.975V466.481Z" fill="#F2F2F2"/>
<path d="M275.799 466.481H267.891V474.39H275.799V466.481Z" fill="#F2F2F2"/>
<path d="M288.077 466.481H280.168V474.39H288.077V466.481Z" fill="#F2F2F2"/>
<path d="M300.354 466.481H292.445V474.39H300.354V466.481Z" fill="#F2F2F2"/>
<path d="M312.623 466.481H304.715V474.39H312.623V466.481Z" fill="#F2F2F2"/>
<path d="M300.354 492.287H292.445V500.195H300.354V492.287Z" fill="#F2F2F2"/>
<path d="M312.623 492.287H304.715V500.195H312.623V492.287Z" fill="#F2F2F2"/>
<path d="M374.002 492.287H366.094V500.195H374.002V492.287Z" fill="#F2F2F2"/>
<path d="M288.077 479.383H280.168V487.292H288.077V479.383Z" fill="#F2F2F2"/>
<path d="M300.354 479.383H292.445V487.292H300.354V479.383Z" fill="#F2F2F2"/>
<path d="M312.623 479.383H304.715V487.292H312.623V479.383Z" fill="#F2F2F2"/>
<path d="M5.73281 260.043H-2.17578V267.952H5.73281V260.043Z" fill="#F2F2F2"/>
<path d="M18.0102 260.043H10.1016V267.952H18.0102V260.043Z" fill="#F2F2F2"/>
<path d="M30.2875 260.043H22.3789V267.952H30.2875V260.043Z" fill="#F2F2F2"/>
<path d="M42.557 260.043H34.6484V267.952H42.557V260.043Z" fill="#F2F2F2"/>
<path d="M54.8383 260.043H46.9297V267.952H54.8383V260.043Z" fill="#F2F2F2"/>
<path d="M67.1117 260.043H59.2031V267.952H67.1117V260.043Z" fill="#F2F2F2"/>
<path d="M79.3851 260.043H71.4766V267.952H79.3851V260.043Z" fill="#F2F2F2"/>
<path d="M91.6625 260.043H83.7539V267.952H91.6625V260.043Z" fill="#F2F2F2"/>
<path d="M103.936 260.043H96.0273V267.952H103.936V260.043Z" fill="#F2F2F2"/>
<path d="M116.213 260.043H108.305V267.952H116.213V260.043Z" fill="#F2F2F2"/>
<path d="M128.491 260.043H120.582V267.952H128.491V260.043Z" fill="#F2F2F2"/>
<path d="M140.768 260.043H132.859V267.952H140.768V260.043Z" fill="#F2F2F2"/>
<path d="M153.041 260.043H145.133V267.952H153.041V260.043Z" fill="#F2F2F2"/>
<path d="M165.319 260.043H157.41V267.952H165.319V260.043Z" fill="#F2F2F2"/>
<path d="M177.596 260.043H169.688V267.952H177.596V260.043Z" fill="#F2F2F2"/>
<path d="M189.866 260.043H181.957V267.952H189.866V260.043Z" fill="#F2F2F2"/>
<path d="M202.143 260.043H194.234V267.952H202.143V260.043Z" fill="#F2F2F2"/>
<path d="M214.42 260.043H206.512V267.952H214.42V260.043Z" fill="#F2F2F2"/>
<path d="M226.698 260.043H218.789V267.952H226.698V260.043Z" fill="#F2F2F2"/>
<path d="M251.248 260.043H243.34V267.952H251.248V260.043Z" fill="#F2F2F2"/>
<path d="M275.799 260.043H267.891V267.952H275.799V260.043Z" fill="#F2F2F2"/>
<path d="M288.077 260.043H280.168V267.952H288.077V260.043Z" fill="#F2F2F2"/>
</g>
</svg>
