<svg width="92" height="69" viewBox="0 0 92 69" fill="none" xmlns="http://www.w3.org/2000/svg">
<path fill-rule="evenodd" clip-rule="evenodd" d="M77.4383 4.32846C74.5959 4.09598 62.2716 3 43.139 3C24.0064 3 12.0391 4.09875 8.97535 4.31186C6.16897 4.50836 4.16797 6.46508 4.16797 9.11924V28.1605C4.16797 30.8175 6.23262 32.7963 8.97535 32.9679C12.7061 33.2032 24.0174 34.2798 43.1362 34.2798C62.255 34.2798 74.2749 33.17 77.275 32.9679C80.1865 32.7714 82.0824 30.8147 82.0824 28.1605V9.122C82.0824 6.46784 80.0509 4.54434 77.4355 4.32846M75.6504 24.9307C75.6504 27.5904 73.4944 29.7436 70.8375 29.7436H15.4405C12.7808 29.7436 10.6276 27.5876 10.6276 24.9307V12.3684C10.6276 9.70874 12.7836 7.55552 15.4405 7.55552H70.8347C73.4944 7.55552 75.6476 9.71151 75.6476 12.3684V24.9307H75.6504Z" fill="white"/>
<path d="M2.00044 54.1568C1.95062 47.7774 6.15465 41.827 13.9815 41.7633C21.0362 41.708 25.6997 46.7229 25.7523 53.1632C25.8104 60.2816 21.2632 65.8334 13.8072 65.9248C5.76442 66.0216 2.04472 59.7031 2.00044 54.1568ZM22.7494 53.9271C22.6996 47.5754 18.5426 43.5485 13.4446 43.5872C8.19163 43.6287 4.95904 47.8078 5.00332 53.4566C5.08635 59.8692 8.93613 64.112 14.3718 64.0704C18.0361 64.04 22.8103 61.4384 22.7494 53.9271Z" fill="white"/>
<path d="M43.3171 42.2312C43.3337 44.2128 43.306 48.9261 43.306 48.9261C43.306 48.9261 42.6916 49.2222 42.592 48.9953C41.5652 46.5017 40.6602 43.2912 36.7938 43.3216C34.1618 43.3438 32.7807 45.5302 32.7973 47.3513C32.8388 52.3552 44.0726 52.8672 44.0726 59.3518C44.0726 61.0096 42.008 65.4461 36.4201 65.4904C34.5686 65.5042 30.3037 64.6629 30.0408 64.2422C29.811 63.8852 29.6837 60.2789 29.7031 58.4606C29.7031 58.4606 30.1874 58.1645 30.3507 58.2918C31.0842 60.5612 32.5123 64.3197 36.3786 64.2892C39.661 64.2616 41.5596 61.8759 41.5513 60.9321C41.4932 53.5868 30.1044 54.6164 30.1044 48.0238C30.1044 45.7156 32.4624 42.1537 37.3058 42.115C38.5402 42.1039 40.2976 42.4471 41.6648 42.5993C42.055 42.6297 42.4425 42.3973 42.6999 42.007C43.0569 42.0375 43.3171 42.0984 43.3199 42.2284" fill="white"/>
<path d="M49.9143 51.0681C49.8783 46.662 49.7593 43.2716 49.5352 42.1646C49.9365 42.1923 50.49 42.2199 50.9217 42.2144C52.062 42.2061 53.5704 42.0705 55.1119 42.0567C60.3511 42.0151 61.6685 45.1149 61.6878 47.3954C61.7072 49.9832 60.0881 51.6299 58.7707 52.3799C61.3668 53.13 63.8466 55.0202 63.8743 58.5324C63.9019 62.0749 61.3723 65.4874 55.9173 65.5289C53.7918 65.5456 52.3111 65.374 51.6026 65.3491C51.1404 65.3214 50.2769 65.3601 49.8147 65.3933C49.9282 64.159 49.9918 60.4919 49.9586 56.4871L49.9143 51.0653V51.0681ZM52.5076 51.8181C52.5076 51.879 52.538 51.9399 52.6321 51.9703C53.2189 51.998 55.7153 52.0063 56.2079 52.0035C56.7614 51.998 57.0078 51.9648 57.3759 51.7157C58.6324 50.8743 59.2385 49.3909 59.2246 48.0347C59.2025 45.4166 57.5862 43.673 54.4754 43.6979C53.4597 43.7062 52.7511 43.7726 52.5353 43.8362C52.4744 43.8667 52.4439 43.9303 52.4439 44.0217L52.5076 51.8181ZM59.0337 54.8154C57.9488 53.9602 56.6535 53.7554 55.3583 53.7056C54.373 53.653 52.9227 53.6641 52.646 53.6973C52.5546 53.7305 52.5242 53.761 52.5242 53.8219L52.5463 56.4705C52.5879 61.8009 52.6626 63.1266 52.7539 63.2484C53.0639 63.5529 54.2678 63.8518 56.0253 63.8379C58.6434 63.8186 61.1288 62.2881 61.1011 58.9281C61.09 57.5416 60.7717 56.1273 59.0337 54.8154Z" fill="white"/>
<path d="M69.4135 51.1512C69.3775 46.7229 69.289 43.2219 68.9707 42.2034C69.5298 42.2615 69.9311 42.2588 70.396 42.2532C71.016 42.2477 73.3989 42.1065 74.4838 42.0955C76.59 42.0789 78.5744 42.3418 79.9112 43.1665C81.5302 44.1767 82.6899 45.9951 82.7092 48.223C82.7314 50.9187 81.4776 53.0968 78.984 54.8487C80.9878 57.4669 83.2738 60.5749 85.4298 62.8499C86.6199 64.1618 87.8377 64.9589 89.3598 65.1111C89.465 65.1222 89.5397 65.1997 89.5397 65.3297C89.5397 65.4432 89.4844 65.5401 89.3543 65.5401C89.1606 65.5401 86.6144 65.5345 86.4262 65.5345C85.4962 65.5345 84.1512 65.1498 82.8698 63.8269C81.1538 62.1387 78.2395 57.8876 76.7976 55.9779C76.673 55.8229 76.5485 55.762 76.3935 55.7648C75.7431 55.8008 73.5124 55.7869 72.1507 55.7676C72.0594 55.7676 72.0594 55.8312 72.0594 55.9558L72.0677 56.9161C72.0981 60.8185 72.2503 64.1618 72.4164 65.5235C72.1369 65.4626 71.5806 65.4681 71.0547 65.4736C70.4984 65.4792 69.5685 65.5152 69.2281 65.5816C69.4052 64.5271 69.4993 60.6248 69.4661 56.5979L69.4218 51.1484L69.4135 51.1512ZM72.0345 53.6697C72.0345 53.8551 72.0677 53.916 72.1286 53.9465C72.7485 54.0655 74.2984 54.1457 75.9396 54.1319C76.8363 54.1236 77.3317 54.0267 77.733 53.7444C78.9646 52.8366 80.0661 51.2176 80.0495 48.9869C80.0246 45.7045 77.9019 43.709 74.3399 43.7367C73.3795 43.745 72.5133 43.7837 72.0815 43.8778C71.957 43.9083 71.957 43.9719 71.9597 44.0965L72.0372 53.6669L72.0345 53.6697Z" fill="white"/>
</svg>
