<svg width="87" height="33" viewBox="0 0 87 33" fill="none" xmlns="http://www.w3.org/2000/svg" class="text-black dark:text-white">
<path d="M6.32706 29.6979V18.6793C6.32706 15.6716 7.53834 12.8375 9.69501 10.6974C11.8812 8.5573 14.7765 7.4005 17.849 7.4005H20.0352V2.68652H17.849C8.86779 2.68652 1.54102 9.8587 1.54102 18.6793V29.6979H6.32706Z" fill="currentColor"/>
<path d="M71.2086 2.51392V13.6771C71.2086 19.9238 66.0385 24.9848 59.6866 24.9848H57.3231V2.51392H52.5371V29.6699H59.6866C64.0295 29.6699 68.1361 28.0214 71.2381 24.9848C74.3402 21.9771 76.0242 17.9572 76.0242 13.6771V2.51392H71.2381H71.2086Z" fill="currentColor"/>
<path d="M43.5154 6.47521C40.886 3.90133 37.3704 2.45532 33.6479 2.45532C25.937 2.45532 19.6738 8.6153 19.6738 16.1634C19.6738 19.8074 21.1215 23.2489 23.7508 25.8228C26.4097 28.3966 29.8959 29.8426 33.6183 29.8426C37.0454 29.8426 40.2656 28.628 42.8064 26.459V29.698H47.5924V16.1634C47.5924 12.5195 46.1448 9.07802 43.4859 6.47521H43.5154ZM33.6479 25.1287C31.1958 25.1287 28.8914 24.2032 27.1483 22.4969C25.4053 20.7907 24.4599 18.5349 24.4599 16.1345C24.4599 13.7342 25.4053 11.4784 27.1483 9.7721C28.8914 8.06582 31.1958 7.14038 33.6479 7.14038C36.1 7.14038 38.4044 8.06582 40.1474 9.7721C41.8905 11.4784 42.8359 13.7342 42.8359 16.1345C42.8359 21.0799 38.7294 25.1287 33.6479 25.1287Z" fill="currentColor"/>
<path d="M85.1239 2.45532H80.3379V29.698H85.1239V2.45532Z" fill="currentColor"/>
</svg>
