<svg width="93" height="42" viewBox="0 0 93 42" fill="none" xmlns="http://www.w3.org/2000/svg">
<g clip-path="url(#clip0_3177_8706)">
<path d="M32.4658 37.8301C32.4658 38.913 31.5136 39.6068 29.6904 39.6068C28.535 39.6068 27.4957 39.3426 26.7118 38.8694C26.5783 38.7881 26.5522 38.6023 26.6538 38.4862L27.2489 37.8011C27.3302 37.7082 27.4637 37.6878 27.5711 37.7488C28.1111 38.0623 28.8775 38.2975 29.7165 38.2975C30.2855 38.2975 30.5555 38.2133 30.5555 38.042C30.5555 37.8707 30.3668 37.7982 29.5569 37.7285C28.024 37.5978 26.6828 37.2437 26.6828 36.1057C26.6828 34.9676 27.8702 34.4189 29.4785 34.4189C30.3668 34.4189 31.2813 34.596 31.9897 34.9531C32.1348 35.0257 32.1697 35.2173 32.0681 35.3421L31.5136 36.0186C31.4381 36.1115 31.3074 36.1376 31.2 36.0824C30.6833 35.8153 30.1114 35.7108 29.4843 35.7108C29.0604 35.7108 28.5901 35.7515 28.5901 35.9402C28.5901 36.0998 28.924 36.1492 29.6236 36.2044C31.2813 36.3437 32.4629 36.6485 32.4629 37.8359L32.4658 37.8301Z" fill="white"/>
<path d="M37.8733 37.2555V38.7186C37.8733 38.8667 37.8878 38.9973 37.9169 39.1222C37.9546 39.2847 37.8356 39.4386 37.6701 39.4386H36.2389C36.1866 39.4386 36.1343 39.4125 36.1053 39.366C36.0647 39.2993 36.0385 39.2209 36.0385 39.1454V39.1251C35.7482 39.4096 35.2547 39.5751 34.6654 39.5751C33.8728 39.5751 32.8887 39.2615 32.8887 38.2919C32.8887 37.3222 33.8728 37.0087 34.6654 37.0087C35.2547 37.0087 35.7482 37.1742 36.0385 37.4587V37.2235C36.0385 36.849 35.6582 36.6139 34.9615 36.6139C34.6596 36.6139 34.2647 36.6574 33.8496 36.791C33.7132 36.8345 33.5651 36.7532 33.5274 36.6139L33.3503 35.9665C33.3125 35.833 33.3909 35.6965 33.5245 35.6559C34.076 35.4846 34.796 35.4004 35.3563 35.4004C36.9385 35.4004 37.8675 36.0652 37.8675 37.2526L37.8733 37.2555ZM36.0676 38.2745C35.8469 38.0393 35.5131 37.9754 35.2692 37.9754C34.9905 37.9754 34.6944 38.0596 34.6944 38.2948C34.6944 38.5299 34.9934 38.6141 35.2692 38.6141C35.5131 38.6141 35.844 38.5503 36.0676 38.3151V38.2745Z" fill="white"/>
<path d="M42.3457 39.061C42.3631 39.1423 42.3254 39.2236 42.2528 39.2642C41.8667 39.4849 41.3035 39.5923 40.8593 39.5923C39.852 39.5923 39.132 39.0378 39.132 37.9898V36.8024H38.6994C38.5949 36.8024 38.5078 36.7182 38.5078 36.6108V35.7427C38.5078 35.6382 38.592 35.5511 38.6994 35.5511H39.132V34.8486C39.132 34.7441 39.2162 34.657 39.3236 34.657H40.8158C40.9203 34.657 41.0074 34.7412 41.0074 34.8486V35.5511H42.1425C42.247 35.5511 42.3341 35.6353 42.3341 35.7427V36.6108C42.3341 36.7153 42.2499 36.8024 42.1425 36.8024H41.0074V37.6907C41.0074 37.9694 41.2019 38.1697 41.5561 38.1697C41.678 38.1697 41.797 38.1465 41.9422 38.1001C42.0525 38.0652 42.1686 38.132 42.189 38.2452L42.3486 39.0639L42.3457 39.061Z" fill="white"/>
<path d="M48.1378 35.746V39.2501C48.1378 39.3546 48.0536 39.4417 47.9462 39.4417H46.454C46.3495 39.4417 46.2624 39.3575 46.2624 39.2501V38.9278C45.9082 39.3662 45.4379 39.581 44.834 39.581C43.7657 39.581 43.1328 38.8814 43.1328 37.8943V35.746C43.1328 35.6415 43.217 35.5544 43.3244 35.5544H44.8166C44.9211 35.5544 45.0082 35.6386 45.0082 35.746V37.7811C45.0082 38.0598 45.2027 38.2601 45.5221 38.2601C45.7775 38.2601 46.0156 38.1353 46.2653 37.8014V35.7431C46.2653 35.6386 46.3495 35.5515 46.4569 35.5515H47.9491C48.0536 35.5515 48.1407 35.6357 48.1407 35.7431L48.1378 35.746Z" fill="white"/>
<path d="M48.9785 39.2496V35.7456C48.9785 35.6411 49.0627 35.554 49.1701 35.554H50.6623C50.7668 35.554 50.8539 35.6382 50.8539 35.7456V36.1375C51.1268 35.7369 51.5274 35.5307 52.0094 35.4727C52.1632 35.4553 52.2968 35.5714 52.2968 35.7252V36.7239C52.2968 36.8575 52.1923 36.9678 52.0587 36.9794C51.3997 37.0345 50.9788 37.3191 50.8539 37.8155V39.2467C50.8539 39.3512 50.7697 39.4383 50.6623 39.4383H49.1701C49.0656 39.4383 48.9785 39.3541 48.9785 39.2467V39.2496Z" fill="white"/>
<path d="M56.2302 36.0187V34.4946C56.2302 34.3901 56.3144 34.303 56.4218 34.303H57.914C58.0185 34.303 58.1056 34.3872 58.1056 34.4946V39.1831C58.1056 39.3254 57.9924 39.4386 57.8501 39.4386H56.4218C56.3173 39.4386 56.2302 39.3544 56.2302 39.247V38.9741C55.8557 39.4183 55.3477 39.5779 54.7932 39.5779C53.5913 39.5779 52.7871 38.8086 52.7871 37.4964C52.7871 36.1842 53.5913 35.4149 54.7932 35.4149C55.3477 35.4149 55.8557 35.5745 56.2302 36.0187ZM56.2302 37.8448V37.1509C55.9805 36.8316 55.6612 36.7358 55.3622 36.7358C54.8338 36.7358 54.5493 37.0406 54.5493 37.4993C54.5493 37.958 54.8338 38.2628 55.3622 38.2628C55.6612 38.2628 55.9805 38.167 56.2302 37.8477V37.8448Z" fill="white"/>
<path d="M69.0126 35.92L66.725 40.684C66.6814 40.7711 66.5943 40.8291 66.4956 40.8291H65.2066C65.015 40.8291 64.8931 40.6288 64.9802 40.4575L65.5956 39.2528L63.9467 35.9229C63.8625 35.7545 63.9873 35.5542 64.176 35.5542H65.4911C65.5927 35.5542 65.6856 35.6152 65.7263 35.711L66.5217 37.6096L67.262 35.7168C67.2998 35.6181 67.3956 35.5542 67.5001 35.5542H68.7862C68.9749 35.5542 69.0968 35.7516 69.0155 35.92H69.0126Z" fill="white"/>
<path d="M63.6428 37.2552V38.7184C63.6428 38.8665 63.6574 38.9971 63.6864 39.1219C63.7241 39.2845 63.6051 39.4384 63.4396 39.4384H62.0084C61.9561 39.4384 61.9039 39.4122 61.8748 39.3658C61.8342 39.299 61.8081 39.2206 61.8081 39.1452V39.1248C61.5178 39.4093 61.0242 39.5748 60.4349 39.5748C59.6424 39.5748 58.6582 39.2613 58.6582 38.2916C58.6582 37.322 59.6424 37.0085 60.4349 37.0085C61.0242 37.0085 61.5178 37.1739 61.8081 37.4584V37.2233C61.8081 36.8488 61.4278 36.6136 60.731 36.6136C60.4291 36.6136 60.0343 36.6572 59.6191 36.7907C59.4827 36.8343 59.3346 36.753 59.2969 36.6136L59.1198 35.9663C59.0821 35.8327 59.1604 35.6963 59.294 35.6556C59.8456 35.4843 60.5655 35.4001 61.1258 35.4001C62.708 35.4001 63.637 36.065 63.637 37.2523L63.6428 37.2552ZM61.84 38.2742C61.6194 38.0391 61.2855 37.9752 61.0417 37.9752C60.763 37.9752 60.4668 38.0594 60.4668 38.2945C60.4668 38.5297 60.7659 38.6139 61.0417 38.6139C61.2855 38.6139 61.6165 38.55 61.84 38.3149V38.2742Z" fill="white"/>
<path d="M88.8241 11.174H81.8276C81.4008 11.174 81.0524 11.5194 81.0524 11.9491V24.7315C81.0524 25.7998 80.1844 26.6678 79.1161 26.6678H72.4012C71.3328 26.6678 70.4648 25.7998 70.4648 24.7315V11.9491C70.4648 11.5223 70.1193 11.174 69.6897 11.174H62.6903C61.6219 11.174 60.7539 10.3059 60.7539 9.23759V5.36484C60.7539 4.2965 61.6219 3.42847 62.6903 3.42847H88.8241C89.8924 3.42847 90.7604 4.2965 90.7604 5.36484V9.23759C90.7604 10.3059 89.8924 11.174 88.8241 11.174Z" fill="white"/>
<path d="M50.7538 3.42822H44.8779C43.554 3.42822 42.3464 4.17722 41.757 5.36169L33.1116 22.7513C32.2145 24.5541 33.5267 26.6705 35.5386 26.6705H60.0901C62.102 26.6705 63.4142 24.5541 62.5171 22.7513L53.8717 5.36169C53.2824 4.17722 52.0747 3.42822 50.7509 3.42822H50.7538ZM44.7124 17.8305L47.1104 12.4598C47.3832 11.8472 48.2513 11.8472 48.5242 12.4598L50.9192 17.8305C51.1486 18.3444 50.7741 18.9221 50.2109 18.9221H45.4178C44.8575 18.9221 44.483 18.3444 44.7095 17.8305H44.7124Z" fill="white"/>
<path d="M17.3109 2.21186C9.97186 2.21186 4.56047 5.07723 4.56047 10.3057C4.56047 15.5342 10.4102 17.9177 17.0351 18.8147C17.4967 18.8786 17.8393 19.2908 17.8393 19.7786V19.8279C17.8393 20.3853 17.4038 20.8179 16.8755 20.8034C13.4904 20.7105 9.72219 19.6799 6.80167 17.6477C6.02363 17.1077 4.94948 17.3806 4.52853 18.2283L3.09149 21.1227C2.75183 21.8078 2.96085 22.641 3.58793 23.0823C6.90618 25.4193 11.5802 27.1234 18.1006 27.1234C27.1031 27.1234 31.3213 23.7936 31.3213 18.597C31.3213 13.1101 25.5499 11.525 18.658 10.8457C18.208 10.8022 17.8654 10.4044 17.8654 9.92832C17.8654 9.41447 18.2515 8.9732 18.7392 8.9732C22.1562 8.9732 25.0709 9.6235 27.3353 10.538C28.0785 10.837 28.9263 10.5002 29.2833 9.78317L30.7755 6.77845C31.1674 5.99171 30.8278 5.03658 30.0265 4.6737C26.9492 3.28311 22.6846 2.20605 17.3051 2.20605L17.3109 2.21186Z" fill="white"/>
</g>
<defs>
<clipPath id="clip0_3177_8706">
<rect width="93" height="42" fill="white"/>
</clipPath>
</defs>
</svg>
